<svg id="Layer_4" data-name="Layer 4" xmlns="http://www.w3.org/2000/svg" viewBox="0 0 54.12 60"><defs><style>.cls-1{fill:#231f20;}</style></defs><title>bus</title><path class="cls-1" d="M26.68,54.61H41.33a.73.73,0,0,0,.72-.73.72.72,0,0,0-.72-.72H26.68a.73.73,0,0,0-.73.72A.73.73,0,0,0,26.68,54.61Z" transform="translate(-6.94 -12)"/><path class="cls-1" d="M26.68,57.1H41.33a.72.72,0,1,0,0-1.44H26.68a.72.72,0,1,0,0,1.44Z" transform="translate(-6.94 -12)"/><path class="cls-1" d="M21.18,58.07a3,3,0,1,0-3-3A3,3,0,0,0,21.18,58.07Zm0-4.51a1.53,1.53,0,1,1-1.53,1.53A1.54,1.54,0,0,1,21.18,53.56Z" transform="translate(-6.94 -12)"/><path class="cls-1" d="M46.82,58.07a3,3,0,1,0-3-3A3,3,0,0,0,46.82,58.07Zm0-4.51a1.53,1.53,0,1,1-1.53,1.53A1.53,1.53,0,0,1,46.82,53.56Z" transform="translate(-6.94 -12)"/><path class="cls-1" d="M60,26.81H56.79a1.07,1.07,0,0,0-1.07,1h-1V21.64A9.65,9.65,0,0,0,45.06,12H22.94a9.66,9.66,0,0,0-9.64,9.64v6.17h-1a1.07,1.07,0,0,0-1.07-1H8a1.08,1.08,0,0,0-1.09,1.08v7A1.09,1.09,0,0,0,8,36h3.18a1.08,1.08,0,0,0,1.08-1.09V29.26h1V63.62a3.74,3.74,0,0,0,3.64,3.73V69.4A2.61,2.61,0,0,0,19.55,72h2.1a2.61,2.61,0,0,0,2.6-2.6V67.35H43.71V69.4A2.61,2.61,0,0,0,46.32,72h2.1A2.61,2.61,0,0,0,51,69.4V67.35a3.73,3.73,0,0,0,3.68-3.73V29.26h1v5.66A1.08,1.08,0,0,0,56.79,36H60a1.09,1.09,0,0,0,1.08-1.09v-7A1.08,1.08,0,0,0,60,26.81ZM10.85,34.56H8.39V28.25h2.46ZM22.94,13.45H45.06a8.2,8.2,0,0,1,8.2,8.19v1.61H14.75V21.64A8.19,8.19,0,0,1,22.94,13.45ZM34,50c7.83,0,16-1.52,19.26-4.36V61H14.75V45.62C18,48.46,26.17,50,34,50ZM14.75,24.7H33.28V48.52c-11-.12-18.53-3-18.53-5.6Zm8.06,44.7a1.16,1.16,0,0,1-1.16,1.15h-2.1a1.16,1.16,0,0,1-1.16-1.15V67.35h4.42Zm26.77,0a1.16,1.16,0,0,1-1.16,1.15h-2.1a1.16,1.16,0,0,1-1.16-1.15V67.35h4.42ZM51,65.91H17a2.29,2.29,0,0,1-2.28-2.29V62.41H53.26v1.21A2.3,2.3,0,0,1,51,65.91ZM34.72,48.52V24.7H53.26V42.92C53.26,45.52,45.68,48.4,34.72,48.52Zm24.89-14H57.15V28.25h2.46Z" transform="translate(-6.94 -12)"/></svg>