<svg id="Layer_5" data-name="Layer 5" xmlns="http://www.w3.org/2000/svg" viewBox="0 0 49.37 62"><defs><style>.cls-1{fill:#231f20;}</style></defs><title>owl</title><path class="cls-1" d="M57.24,59.21H48a18.17,18.17,0,0,0,7.73-15.39c0-4.25-1.11-7.41-3.29-9.39a8.12,8.12,0,0,0-4.25-2A7.12,7.12,0,0,0,48,20.89a7.41,7.41,0,0,0,2.92-4.38,6.66,6.66,0,0,0-1-4.78l-.6-.84-.6.83a20.89,20.89,0,0,1-2.88,3H23.57a21.64,21.64,0,0,1-2.88-3l-.6-.83-.6.84a6.66,6.66,0,0,0-1,4.78,7.41,7.41,0,0,0,2.92,4.38,7.12,7.12,0,0,0-.19,11.52,8.12,8.12,0,0,0-4.25,2c-2.18,2-3.29,5.14-3.29,9.39a18.17,18.17,0,0,0,7.73,15.39h-9a2.26,2.26,0,1,0,0,4.51h10l-3.61,3.87.52.5c.2.19,5,4.78,15.46,4.8h.06c10.43,0,15.26-4.61,15.46-4.8l.52-.5-3.61-3.87H57.24a2.26,2.26,0,1,0,0-4.51Zm-3-15.39A17,17,0,0,1,50,55.51c1.12-4.29,2.39-12.7-3-18l-1,1c6.26,6.17,2.45,17.52,1.92,19-.47.35-.89.64-1.22.85a102.89,102.89,0,0,0-4.21-14.13c-1.28-3.42-1.34-6.1-.19-7.94a6.14,6.14,0,0,1,4.27-2.52h.28a7,7,0,0,1,4.63,1.76C53.27,37.21,54.21,40,54.21,43.82Zm-4.7-17.09c0,3.42-3.21,6.21-7.16,6.21a7.08,7.08,0,0,1-6.89-4.61,6.55,6.55,0,0,0,.2-1.6,6.64,6.64,0,0,0-.2-1.61,6.35,6.35,0,0,1,2.88-3.53l0,0a7.85,7.85,0,0,1,4-1.06C46.3,20.51,49.51,23.3,49.51,26.73ZM37,32.71,34.69,35l-2.26-2.26a8.06,8.06,0,0,0,2.26-2.47A8.06,8.06,0,0,0,37,32.71ZM49.14,13.48a5,5,0,0,1,.29,2.77,6.4,6.4,0,0,1-2.83,3.8,9.34,9.34,0,0,0-4-1A34.52,34.52,0,0,0,49.14,13.48ZM44,16.17a46,46,0,0,1-6.51,4.19h0a8.07,8.07,0,0,0-2.84,2.85,8.07,8.07,0,0,0-2.84-2.85h0a46,46,0,0,1-6.51-4.19ZM20,16.25a5,5,0,0,1,.29-2.77,34.35,34.35,0,0,0,6.59,5.58,9.35,9.35,0,0,0-4,1A6.4,6.4,0,0,1,20,16.25Zm-.08,10.48c0-3.43,3.21-6.22,7.16-6.22a7.85,7.85,0,0,1,4,1.06l0,0a6.35,6.35,0,0,1,2.88,3.53,6.64,6.64,0,0,0-.2,1.61,6.55,6.55,0,0,0,.2,1.6A7.07,7.07,0,0,1,27,32.94C23.08,32.94,19.87,30.15,19.87,26.73Zm-4.7,17.09c0-3.8.94-6.59,2.79-8.29a7.06,7.06,0,0,1,4.67-1.78h.26a6.06,6.06,0,0,1,4.25,2.51c1.17,1.84,1.11,4.52-.18,7.95a100.09,100.09,0,0,0-4.2,14.12c-.34-.22-.77-.51-1.24-.88-.57-1.59-4.3-12.82,1.93-19l-1-1c-5.4,5.31-4.18,13.66-3.06,18A17,17,0,0,1,15.17,43.82Zm13.17.92c1.45-3.89,1.46-7,0-9.25a6.23,6.23,0,0,0-.9-1.1,9.4,9.4,0,0,0,3.65-.91L34.69,37l3.56-3.56a9.4,9.4,0,0,0,3.65.91,6.23,6.23,0,0,0-.9,1.1c-1.42,2.25-1.41,5.36,0,9.25A95.76,95.76,0,0,1,45.3,59.21h-.64A2.29,2.29,0,0,0,40.86,58a2.28,2.28,0,0,0-3.79,1.17H32.31A2.28,2.28,0,0,0,28.52,58a2.29,2.29,0,0,0-3.8,1.17h-.64A95.76,95.76,0,0,1,28.34,44.74Zm13.26,15a.83.83,0,0,1,1.65,0v3.34a.83.83,0,0,1-1.65,0Zm-1.47,3.34a.83.83,0,0,1-1.65,0V59.71a.83.83,0,0,1,1.65,0ZM37,62.26H32.37V60.68H37Zm-7.76-2.55a.83.83,0,0,1,1.65,0v3.34a.83.83,0,0,1-1.65,0Zm-1.47,3.34a.83.83,0,0,1-1.65,0V59.71a.83.83,0,0,1,1.65,0ZM11.59,61.47a.79.79,0,0,1,.79-.79H24.66v1.58H12.38A.8.8,0,0,1,11.59,61.47Zm37.1,6a13,13,0,0,1-1.51,1l-1.13-1.31-1.11,1,.91,1.06c-.6.28-1.29.55-2.05.82l-.58-1.24-1.33.64.5,1c-.71.2-1.47.38-2.3.53l-.33-1.33L38.33,70l.3,1.18c-1,.12-2,.2-3.1.23l0-1.58-1.47,0,0,1.55c-1,0-1.94-.09-2.83-.19l.36-1.44-1.43-.35L29.77,71a23.34,23.34,0,0,1-2.37-.51L28,69.17l-1.33-.63L26,70.05a22.92,22.92,0,0,1-2.14-.83L25,67.89l-1.11-1-1.38,1.6a16.71,16.71,0,0,1-1.62-1.05l3.52-3.77h.39a2.28,2.28,0,0,0,3.74,1,2.28,2.28,0,0,0,3.74-1h4.86a2.28,2.28,0,0,0,3.74,1,2.28,2.28,0,0,0,3.74-1h.57Zm8.55-5.23H44.72V60.68H57.24a.79.79,0,1,1,0,1.58Z" transform="translate(-10.12 -10.89)"/><path class="cls-1" d="M27,29a2.23,2.23,0,1,0-2.23-2.22A2.23,2.23,0,0,0,27,29Zm0-3a.76.76,0,1,1-.76.76A.76.76,0,0,1,27,26Z" transform="translate(-10.12 -10.89)"/><path class="cls-1" d="M42.35,24.5a2.23,2.23,0,1,0,2.23,2.23A2.23,2.23,0,0,0,42.35,24.5Zm0,3a.76.76,0,1,1,.76-.75A.76.76,0,0,1,42.35,27.48Z" transform="translate(-10.12 -10.89)"/><path class="cls-1" d="M34.69,50c2.58,0,5.35-.78,5.35-2.5H38.57c-.07.29-1.37,1-3.88,1s-3.81-.75-3.88-1H29.34C29.34,49.25,32.11,50,34.69,50Z" transform="translate(-10.12 -10.89)"/><path class="cls-1" d="M34.69,55.76c3.71,0,7.47-1.14,7.47-3.31H40.69c0,.62-2.12,1.84-6,1.84s-6-1.22-6-1.84H27.22C27.22,54.62,31,55.76,34.69,55.76Z" transform="translate(-10.12 -10.89)"/></svg>