<svg id="Service" xmlns="http://www.w3.org/2000/svg" viewBox="0 0 59.1 53"><defs><style>.cls-1{fill:#231f20;}</style></defs><title>hands</title><path class="cls-1" d="M39.3,44.39H37.59V40.71a2,2,0,0,1,.54-1.37l4.5-4.76a.27.27,0,0,0,.07-.18V28.89a1.39,1.39,0,1,0-2.77,0V33H38.22V28.89a3.1,3.1,0,1,1,6.19,0V34.4a2,2,0,0,1-.54,1.36l-4.49,4.76a.27.27,0,0,0-.08.19Z" transform="translate(-3.9 -16)"/><path class="cls-1" d="M28.83,44.26H27.12V41.39l-2.76-6.45a1.91,1.91,0,0,1-.15-.76V22.5a2.6,2.6,0,1,1,5.19,0v5.55H27.69V22.5a.89.89,0,1,0-1.77,0V34.18l2.76,6.45a1.91,1.91,0,0,1,.15.76Z" transform="translate(-3.9 -16)"/><path class="cls-1" d="M39.93,32.61H38.22V20.75a.9.9,0,1,0-1.8,0v8.89H34.71V20.75a2.61,2.61,0,0,1,5.22,0Z" transform="translate(-3.9 -16)"/><path class="cls-1" d="M32.91,28.05H31.2V18.61a2.61,2.61,0,0,1,5.22,0V27.5H34.71V18.61a.9.9,0,1,0-1.8,0Z" transform="translate(-3.9 -16)"/><path class="cls-1" d="M29.4,29.82H27.69V20.48a2.61,2.61,0,1,1,5.22,0v9H31.2v-9a.9.9,0,0,0-1.8,0Z" transform="translate(-3.9 -16)"/><polygon class="cls-1" points="36.86 53 35.15 53 35.15 28.39 23.76 28.39 23.76 53 22.05 53 22.05 26.68 36.86 26.68 36.86 53"/><rect class="cls-1" x="22.05" y="31.96" width="9.13" height="1.71"/><path class="cls-1" d="M19,57.2H17.28V53.52a2,2,0,0,1,.55-1.37l4.49-4.75a.24.24,0,0,0,.07-.18V41.7a1.39,1.39,0,0,0-2.77,0v4.09H17.91V41.7a3.1,3.1,0,0,1,6.19,0v5.52a1.92,1.92,0,0,1-.54,1.35l-4.49,4.76a.27.27,0,0,0-.08.19Z" transform="translate(-3.9 -16)"/><path class="cls-1" d="M8.53,57.07H6.82V54.2L4.05,47.75A2,2,0,0,1,3.9,47V35.31a2.6,2.6,0,1,1,5.19,0v5.55H7.38V35.31a.89.89,0,1,0-1.77,0V47l2.76,6.45a1.92,1.92,0,0,1,.16.76Z" transform="translate(-3.9 -16)"/><path class="cls-1" d="M19.62,45.43H17.91V33.56a.9.9,0,1,0-1.8,0v8.89H14.4V33.56a2.61,2.61,0,1,1,5.22,0Z" transform="translate(-3.9 -16)"/><path class="cls-1" d="M12.6,40.86H10.89V31.42a2.61,2.61,0,1,1,5.22,0v8.9H14.4v-8.9a.9.9,0,1,0-1.8,0Z" transform="translate(-3.9 -16)"/><path class="cls-1" d="M9.09,42.64H7.38V33.29a2.61,2.61,0,0,1,5.22,0v9H10.89v-9a.9.9,0,0,0-1.8,0Z" transform="translate(-3.9 -16)"/><polygon class="cls-1" points="16.55 53 14.84 53 14.84 41.2 3.45 41.2 3.45 53 1.74 53 1.74 39.49 16.55 39.49 16.55 53"/><path class="cls-1" d="M57.89,64.14H56.18V60.45a2,2,0,0,1,.54-1.36l4.5-4.76a.29.29,0,0,0,.07-.18V48.64a1.39,1.39,0,1,0-2.77,0v4.08H56.81V48.64a3.1,3.1,0,1,1,6.19,0v5.51a1.92,1.92,0,0,1-.54,1.35L58,60.26a.27.27,0,0,0-.08.19Z" transform="translate(-3.9 -16)"/><path class="cls-1" d="M47.42,64H45.71V61.14L43,54.68a2,2,0,0,1-.15-.76V42.25a2.6,2.6,0,1,1,5.19,0V47.8H46.28V42.25a.89.89,0,1,0-1.77,0V53.92l2.76,6.46a1.87,1.87,0,0,1,.15.76Z" transform="translate(-3.9 -16)"/><path class="cls-1" d="M58.52,52.36H56.81V40.49a.9.9,0,1,0-1.8,0v8.9H53.3v-8.9a2.61,2.61,0,0,1,5.22,0Z" transform="translate(-3.9 -16)"/><path class="cls-1" d="M51.5,47.8H49.79V38.36a2.61,2.61,0,0,1,5.22,0v8.89H53.3V38.36a.9.9,0,1,0-1.8,0Z" transform="translate(-3.9 -16)"/><path class="cls-1" d="M48,49.57H46.28V40.23a2.61,2.61,0,0,1,5.22,0v9H49.79v-9a.9.9,0,0,0-1.8,0Z" transform="translate(-3.9 -16)"/><polygon class="cls-1" points="55.45 53 53.74 53 53.74 48.14 42.35 48.14 42.35 53 40.64 53 40.64 46.43 55.45 46.43 55.45 53"/></svg>