<svg id="Calendar" xmlns="http://www.w3.org/2000/svg" viewBox="0 0 59.42 50.81"><defs><style>.cls-1{fill:#231f20;}</style></defs><title>calendar</title><path class="cls-1" d="M17.28,28.17c-.69,0-1.25-.36-1.25-.8V18.81c0-.45.56-.81,1.25-.81s1.25.36,1.25.81v8.56C18.53,27.81,18,28.17,17.28,28.17Z" transform="translate(-5.19 -18)"/><rect class="cls-1" x="0.32" y="15.03" width="58.57" height="1.61"/><path class="cls-1" d="M52.31,28.17c-.69,0-1.25-.36-1.25-.8V18.81c0-.45.56-.81,1.25-.81s1.25.36,1.25.81v8.56C53.56,27.81,53,28.17,52.31,28.17Z" transform="translate(-5.19 -18)"/><rect class="cls-1" x="6.78" y="21.49" width="4.86" height="1.61"/><rect class="cls-1" x="13.58" y="21.49" width="4.86" height="1.61"/><rect class="cls-1" x="20.38" y="21.49" width="4.86" height="1.61"/><rect class="cls-1" x="27.18" y="21.49" width="4.86" height="1.61"/><rect class="cls-1" x="33.98" y="21.49" width="4.86" height="1.61"/><rect class="cls-1" x="40.77" y="21.49" width="4.86" height="1.61"/><rect class="cls-1" x="47.57" y="21.49" width="4.86" height="1.61"/><rect class="cls-1" x="6.78" y="28.59" width="4.86" height="1.61"/><rect class="cls-1" x="40.77" y="28.59" width="4.86" height="1.61"/><rect class="cls-1" x="47.57" y="28.59" width="4.86" height="1.61"/><rect class="cls-1" x="6.78" y="35.69" width="4.86" height="1.61"/><rect class="cls-1" x="13.58" y="35.69" width="4.86" height="1.61"/><rect class="cls-1" x="20.38" y="35.69" width="4.86" height="1.61"/><rect class="cls-1" x="27.18" y="35.69" width="4.86" height="1.61"/><rect class="cls-1" x="33.98" y="35.69" width="4.86" height="1.61"/><rect class="cls-1" x="40.77" y="35.69" width="4.86" height="1.61"/><rect class="cls-1" x="47.57" y="35.69" width="4.86" height="1.61"/><rect class="cls-1" x="6.78" y="42.78" width="4.86" height="1.61"/><rect class="cls-1" x="13.58" y="42.78" width="4.86" height="1.61"/><rect class="cls-1" x="20.38" y="42.78" width="4.86" height="1.61"/><rect class="cls-1" x="27.18" y="42.78" width="4.86" height="1.61"/><rect class="cls-1" x="33.98" y="42.78" width="4.86" height="1.61"/><rect class="cls-1" x="40.77" y="42.78" width="4.86" height="1.61"/><rect class="cls-1" x="47.57" y="42.78" width="4.86" height="1.61"/><rect class="cls-1" x="13.58" y="28.59" width="4.86" height="1.61"/><rect class="cls-1" x="20.38" y="28.59" width="4.86" height="1.61"/><rect class="cls-1" x="27.18" y="28.59" width="4.86" height="1.61"/><rect class="cls-1" x="33.98" y="28.59" width="4.86" height="1.61"/><rect class="cls-1" x="0.32" y="49.19" width="58.57" height="1.61"/><rect class="cls-1" y="5.32" width="1.61" height="45.47"/><rect class="cls-1" x="0.32" y="5.31" width="58.57" height="1.61"/><rect class="cls-1" x="57.81" y="5.32" width="1.61" height="45.47"/></svg>