<svg id="Layer_7" data-name="Layer 7" xmlns="http://www.w3.org/2000/svg" viewBox="0 0 57.81 59"><defs><style>.cls-1{fill:#231f20;}</style></defs><title>sports</title><path class="cls-1" d="M62.9,22.81a11,11,0,0,0-20-6.3H22.11a17.35,17.35,0,0,0-17,17.37v24H20.6L22,70.28l1.1-.12.06.08,4.23-3.19,5.07,3.75L37.37,67l3.93,3,0,.18.31,0,.09.07,0,0,.82.09L44,57.9H59.62v-24a17.11,17.11,0,0,0-.25-3l-.09,0A11,11,0,0,0,62.9,22.81Zm-20.75,0a9.63,9.63,0,0,1,.91-4.08l4.07,2.21a6.55,6.55,0,0,1-4.93,2.81C42.17,23.44,42.15,23.13,42.15,22.81Zm6.1-1.26L51,23l-4.33,8a9.73,9.73,0,0,1-4.22-6A8.07,8.07,0,0,0,48.25,21.55Zm3.82,2.08L54.64,25A8.29,8.29,0,0,0,54,28.17a5,5,0,0,0,1.5,3.68,9.69,9.69,0,0,1-7.78-.24Zm3.21,4.52a7.19,7.19,0,0,1,.47-2.53L60.13,28a9.79,9.79,0,0,1-3.47,3.3l.05-.08A3.63,3.63,0,0,1,55.28,28.15Zm5.45-1.26-4.45-2.42a8.89,8.89,0,0,1,.45-.79,7.3,7.3,0,0,1,4.6-3.26,9.91,9.91,0,0,1,.31,2.39A9.63,9.63,0,0,1,60.73,26.89Zm.21-7.69A8.66,8.66,0,0,0,55.69,23a8.08,8.08,0,0,0-.52.9l-2.5-1.36,4.34-8A9.77,9.77,0,0,1,60.94,19.2Zm-5-5.27-4.33,8L49,20.49c1.41-2.47,1.66-5.23.64-7.14a9.68,9.68,0,0,1,6.3.58Zm-7.56-.18c1,1.51.79,3.93-.49,6.14l-4.18-2.27A9.74,9.74,0,0,1,48.33,13.75Zm-8.8,35.72,4.5-3.4-.71,6.21Zm3.52,4.19-5,3.8L33.48,54l5-3.77Zm-4.59-5-3.82-2.83h7.57Zm-6.12-2.83h.17l4.9,3.62-5,3.76-5-3.76Zm-6,2.83-3.74-2.83h7.57Zm5,5.35-4.53,3.42-5-3.8,4.58-3.39Zm-5.58,4.21-3.57,2.69-.67-5.88Zm1.05.79,4.53,3.43-4,3-4.58-3.39Zm1.05-.79,4.53-3.42L37,58.25l-4.54,3.42ZM38,59l3.82,2.88-4.47,3.47-3.88-2.92Zm1.05-.79,3.92-3-.62,5.44Zm-20-13.65h-3.6a1.6,1.6,0,1,1,0-3.2H48.77a1.6,1.6,0,0,1,0,3.2H19.08Zm1.46,1.26,4.78,3.61-4.07,3-.75-6.62ZM23.11,68.7l-.6-5.26,3.82,2.83Zm9.34.51-4-2.95,4-3,3.9,2.94Zm5.95-3,3.66-2.84-.59,5.16Zm20-32.3V56.63H44.1l1.23-10.77h3.44a2.87,2.87,0,1,0,0-5.73H15.48a2.87,2.87,0,0,0,0,5.73h3.74l1.24,10.77H6.36V33.88a16.08,16.08,0,0,1,15.76-16.1h20a11,11,0,0,0,16.1,14A16,16,0,0,1,58.36,33.88Z" transform="translate(-5.1 -11.8)"/></svg>