<svg id="Layer_8" data-name="Layer 8" xmlns="http://www.w3.org/2000/svg" viewBox="0 0 58.28 61"><defs><style>.cls-1{fill:#231f20;}</style></defs><title>tenure</title><path class="cls-1" d="M40.32,23.52H10.65A5.79,5.79,0,0,0,4.86,29.3v19H9.08v20.4H23.57V30.49H40.32ZM38.93,29.1H22.18V67.35H17V49.91H15.63V67.35H10.47V44.51H9.08V47H6.25V29.3a4.4,4.4,0,0,1,4.4-4.39H38.93Z" transform="translate(-4.86 -9.44)"/><path class="cls-1" d="M16.33,21.64a6.1,6.1,0,1,0-6.1-6.1A6.11,6.11,0,0,0,16.33,21.64Zm0-10.81a4.71,4.71,0,1,1-4.71,4.71A4.72,4.72,0,0,1,16.33,10.83Z" transform="translate(-4.86 -9.44)"/><polygon class="cls-1" points="58.28 6.57 19.9 6.57 19.9 7.96 56.89 7.96 56.89 11.21 55.65 11.21 19.9 11.21 19.9 12.6 54.26 12.6 54.26 35.06 19.9 35.06 19.9 36.45 55.65 36.45 55.65 12.6 58.28 12.6 58.28 6.57"/><rect class="cls-1" x="10.77" y="19.5" width="1.39" height="1.71"/><rect class="cls-1" x="10.77" y="23.07" width="1.39" height="1.71"/><rect class="cls-1" x="10.77" y="26.64" width="1.39" height="1.71"/><rect class="cls-1" x="30.94" y="24.15" width="21.15" height="1.39"/><rect class="cls-1" x="39.36" y="19.97" width="12.74" height="1.39"/><rect class="cls-1" x="39.36" y="15.78" width="12.74" height="1.39"/><rect class="cls-1" x="30.94" y="28.33" width="21.15" height="1.39"/><path class="cls-1" d="M35.33,60.35a5.22,5.22,0,1,0-5.22-5.22A5.22,5.22,0,0,0,35.33,60.35Zm0-9.05a3.83,3.83,0,1,1-3.83,3.83A3.84,3.84,0,0,1,35.33,51.3Z" transform="translate(-4.86 -9.44)"/><rect class="cls-1" x="29.61" y="58.32" width="1.73" height="1.39"/><path class="cls-1" d="M54.48,61.73H45.42a3.46,3.46,0,0,0-2.78,1.41,3.46,3.46,0,0,0-2.78-1.41H30.8a3.48,3.48,0,0,0-3.48,3.48v5.23h1.39V65.21a2.1,2.1,0,0,1,2.09-2.09h9.06a2.08,2.08,0,0,1,2.08,2.08h0v5.23h1.39V65.21a2.1,2.1,0,0,1,2.09-2.09h9.06a2.08,2.08,0,0,1,2.08,2.08v5.24H58V65.2A3.48,3.48,0,0,0,54.48,61.73Z" transform="translate(-4.86 -9.44)"/><path class="cls-1" d="M50,60.35a5.22,5.22,0,1,0-5.22-5.22A5.22,5.22,0,0,0,50,60.35Zm0-9.05a3.83,3.83,0,1,1-3.83,3.83A3.84,3.84,0,0,1,50,51.3Z" transform="translate(-4.86 -9.44)"/><rect class="cls-1" x="44.22" y="58.32" width="1.73" height="1.39"/></svg>